<svg xmlns="http://www.w3.org/2000/svg" viewBox="0 0 516.08 516"><defs><style>.cls-1,.cls-5{stroke:#7c6358;}.cls-1,.cls-5,.cls-8{stroke-miterlimit:10;}.cls-1{stroke-width:18px;}.cls-2,.cls-6{fill:#fff;}.cls-2{opacity:0.74;}.cls-3{fill:#7c6358;}.cls-4{fill:#fefefe;}.cls-5{fill:#401913;stroke-width:3px;}.cls-7{fill:#603813;}.cls-8{fill:none;stroke:#000;stroke-width:6px;}.cls-9{font-size:28px;font-family:PTSans-Bold, PT Sans;font-weight:700;}</style></defs><title>captainconsole</title><g id="Layer_6" data-name="Layer 6"><circle class="cls-1" cx="258.08" cy="258" r="249"/></g><g id="Layer_7_copy" data-name="Layer 7 copy"><path class="cls-2" d="M557,426v.27A.62.62,0,0,0,557,426Z" transform="translate(-110.92 -60)"/><path class="cls-2" d="M570,450l-46-20c-44,61-217,71-324-15-30.38-24.42-51-42-89-101-2,83,36,148,79,190C359,632,497,528,570,450Z" transform="translate(-110.92 -60)"/></g><g id="Layer_5" data-name="Layer 5"><path class="cls-3" d="M437.43,128.58c1.61,3.51,14.25,15.6,13.78,16.27-.67.92.33,1.72.92,2.43,2.11,2.59,4,5.09,4.19,8.78.11,2.18,2.51,3.83,3.74,5.84a50.19,50.19,0,0,1,7.57,23.43,10.37,10.37,0,0,0,.95,3.75c1.49,3.23,1.1,7.08,2.91,10,3,5,2,10.14,1.86,15.41-.12,6-1.46,11.89-2,17.85a39.57,39.57,0,0,0,2,14.94c3.82,12.66,1.49,24.74-1.66,37-2.09,8.17-3,16.65-4.25,25a40.49,40.49,0,0,1-1.06,5.88,122,122,0,0,1-6.89,18.79c-3.45,7.05-6.33,14.41-9.95,21.4a18.45,18.45,0,0,1-2.74,3.83c-3.83,4.3-6,9.92-10.95,13.36a7.43,7.43,0,0,1-10.37-2.52,20.15,20.15,0,0,1-2.38-10.94,6.08,6.08,0,0,0-5.25-5.75c-3.46-.22-5.06,1.61-4.35,5.12.46,2.31,1.43,4.54.49,7-.39,1-.46,2.07-1.83,2.23a2.62,2.62,0,0,1-2.67-1.19c-1.72-2.37-4.05-4.36-3.69-7.76.1-.93-.78-1.69-1.22-2.53-1-2-2.47-4-.26-6.2.13-.13.28-.37.25-.5-1.37-4.74,2.35-4.2,5-4.75,1.16-.24,2.81-.37,1.49-1.95-2.11-2.53-.41-3.54,1.5-4.1,1.63-.48,2-1.17,2.07-2.75.09-2.67,2.19-4.23,5-4.66,1.91-.29,3.68-1.32,5.53-1.95,1.4-.47,1.67-2.39,1.48-4s-1.41-1.53-2.49-1.89c-3.14-1-6.42-.44-9.63-1-3-.51-5.83-1.84-9-1.35-1.21.19-1.32-.86-1.22-1.77.23-2,3-4.47,5.19-4.4,7.08.22,14.17.05,21-1.85,3.79-1.06,6.92-1.09,10.09,1.42.94.74,2.51.84,3.82.92s2.29-.37,2.33-1.91-1.1-1.51-2.17-1.5c-2.67,0-5.36.07-7.13-2.5a.65.65,0,0,0-.54-.24c-4.72.66-9.26-1.69-14-.89a5.27,5.27,0,0,1-2.77-.26c-1.73-.58-3.21-1.63-5.18-1.91a4.24,4.24,0,0,1-3.29-4.14c-.33-4.54,1.83-8.48,2.52-12.75a9.69,9.69,0,0,1,2.57-5.25c.61-.64,1-1.57,2-1.09s.8,1.5.71,2.5a36.23,36.23,0,0,0,.69,9.85c.23,1.19.84,2.38,2.2,2.18s.81-1.57.79-2.42c-.11-4.67.38-9.36-.24-14-.19-1.46,3.43-4.4,4.77-4a1,1,0,0,1,.66.83c.58,3,2.38,2.84,4.71,2a12.45,12.45,0,0,0,6.33-4.67c.74-1,1.55-2.4.68-3.41s-2.43-.71-3.63.17a4.32,4.32,0,0,1-1.19.32c1.24-2.81-.62-3.23-2.47-4.08a82.88,82.88,0,0,0-9.25-4.14c-4.69-1.51-9.06-.92-13.4.58-4.61,1.6-9.28.49-13.91.81-.81.06-1.16-.54-1.18-1.31-.07-1.84.08-3.61,1.62-4.93a11.15,11.15,0,0,1,9.15-3c1.1.14,3,.81,3-1.44,0-1.89-.18-4-2.74-4.27-1.81-.16-2.92-.79-2.93-2.72a2.6,2.6,0,0,0-1.2-2.18c-2.43-1.69-2.26-4.07-1-6,1.9-2.86,2.53-6.29,4.54-9.05a1.92,1.92,0,0,0,.43-1.32c-.92-4.88,1.74-9.28,1.77-14,0-1.34.87-2,1.87-2.65,4.63-3.16,5.66-7.29,2.86-12a7.24,7.24,0,0,1-.7-3.85c-.05-2.19.12-4.37-1-6.42-.44-.77-.79-1.21-1.69-1.18s-1.08.71-1.31,1.51c-.68,2.45-.56,5-1.7,7.43a4.47,4.47,0,0,1-6.08,2c-3-1.54-5.92-3.11-8.91-4.61-2.13-1.07-4.6-1.08-6.84-1.51-4.2-.81-7.89-2.61-11.72-4.18-3-1.21-6.26-.2-9.26-1.21-5.76-2-10.46,1.49-15.62,2.85-4.16,1.09-7.95,3.19-12.4,3.65-3.13.32-5.59,3.17-7,5.92a62.2,62.2,0,0,1-4,7.7c-2.65,3.81-2.77,8.63-5.81,12.28-1.68,2-1.06,5.21-1.84,7.82-.45,1.53,2.61,3.68,4.35,4.07,4.07.89,8.11,1.94,12.08,3.19,1.4.44,1.7,2.21,2.29,3.51.26.59.24,1.36.6,1.86,1.84,2.53,1.75,2.78-1.22,4-3.68,1.5-6.78,4.24-10.85,5a3.64,3.64,0,0,1-3.64-.93c-2.59-2.62-6-2-8.32,1.15a14.52,14.52,0,0,0-2.86,9.84c.21,4.58,0,9.18,0,13.77s0,9.11,0,13.66a6.28,6.28,0,0,1-.64,3.05c-.48.87-.88,2-.32,2.74,2.37,3,.81,6.19.57,9.28-.08,1,.42,1.86.36,2.8a37,37,0,0,1-1,6.55c-.81,3.31-2.59,6.64-2,10.22.27,1.51-.17,2.77-1.3,3.12-2.08.65-4,3.94-6.55.71a.64.64,0,0,0-1.15,0c-.65.91-1.71,1.84-.87,3.05,2.12,3,1.94,7,4.13,10a.89.89,0,0,1,.07.82c-2,2.88.39,5.26.89,7.84.11.56.43,1.07.13,1.63a4.81,4.81,0,0,0,.13,4.77,21,21,0,0,1,2.08,9c0,.71.69,1.56-.15,2.06s-1.12-.53-1.68-.82a14.48,14.48,0,0,1-1.52-1.09c0,3.6,1.12,6.95-.74,10.19-.77,1.34,1.27,2.49,1.07,4-.08.6.29,1.49-.65,1.64-.67.11-.89-.57-1.1-1.11-.79-2-1.59-4-2.37-6-.22-.56-.51-1-1.77-1.46.9,2.94.48,5.83,1.53,8,1.82,3.68.66,7.57,1.77,11.19a.71.71,0,0,1-.43.93,1.06,1.06,0,0,1-1.25-.46,20.12,20.12,0,0,1-2.34-4.54,5.85,5.85,0,0,0-2.09-3c-2,2.64-4.15,5.16-5.36,8.24-.85,2.15-3.28,3.75-2.17,6.64.41,1.08-.64,1.53-1.6,1.34a82,82,0,0,1-10.5-2.41c-2.11-.73-1.39-2.68,0-4a41.18,41.18,0,0,0,7-8.74c4.82-8.48,8.35-17.54,9-27.2.36-5.67,1.05-11.38.31-17.13a44.52,44.52,0,0,0-1.24-6.12c-2.23-8.38-3.41-17-5.12-25.46-.5-2.49-3.5-2.37-4.3-4.55-.34-.92-1.36-1.57-1.93-2.43a2.71,2.71,0,0,1-.41-3c.65-1,1.73-.2,2.64-.18a10.76,10.76,0,0,0,5.69-1.16c1.7-1,3.47-2,4.87.47,2.32-1.73,3.32,1.7,5.31,1.36,2.24-.39,4.6-3,4-5.37-1-4.07,0-8,.18-12,.28-6.18-1.39-11.85-3.76-17.36a7.85,7.85,0,0,0-3.17-3.61c-3.21-1.75-2.94-5.47-4.95-7.84-.47-.54-.4-1.71-1.35-1.62s-1,1.1-1.24,1.77c-.73,2.14-1.76,3.77-4.37,3.78a3.26,3.26,0,0,0-2.19,1.24c-1.76,1.9-2.43,1.63-3.28-1a5.76,5.76,0,0,1,1.74-6.1c1.82-1.59,3.07-3.27,5.75-3a2.65,2.65,0,0,0,2.92-2.39c.32-3.4,2.11-6.6.85-10.23s1.09-6.71,1.91-10c.17-.71,1.21-1,1.29.14.1,1.45.84,1.78,2.05,2.19s.95,1.71.6,2.74a2,2,0,0,0,.58,2.34c1,.67,1.41-.58,2.05-1,2-1.4,2.78-4,5.45-4.8,1.14-.35,1.64-2.07,1.4-3.51-1.05-6.13,1.81-11.27,4.17-16.53.84-1.89,1.73-3.67-.59-5.25-.7-.48-2.31-2.64-1.9-3.36,1.3-2.28,6.37,3.06,8,1,.76-1-.35-4.94-1-6-.35-.56-4-2-9.49-5.44-1.93-1.21-6.64-2.06-8.1.2-1.64,2.55-3.36,4.79-2.79,8.53a38.34,38.34,0,0,1-.57,14.28c-.69,3-.14,5.44.39,8.09.26,1.25.26,2.58-.73,3.05-1.18.57-1.95-.39-2.39-1.69s-1-.47-1.57.13c-2.22,2.49-2.18,2.45-3.64-.39a2.71,2.71,0,0,0-2.72-1.74c-1.79.19-3.58.38-5.36.67-.75.13-1.76,4.41-1.28,5.41S276.05,235,275,235c-4,0-4-5-8-9-.43-.51-3.95-2.25-5.29-1.87a5.4,5.4,0,0,1-4.25-.64,5,5,0,0,0-7.34,3.13A46.26,46.26,0,0,0,249,243.5a100.82,100.82,0,0,1,.29,10.3,21.19,21.19,0,0,0,1.36,6.94,4.39,4.39,0,0,0,.58-.2c-.79-3.93.73-7.43,2-11,.42-1.18.66-2.95,1.87-2.9s1.57,1.91,2.08,3.07a2.68,2.68,0,0,1-.07,2.22c-1.69,2.58-.75,5.4-1,8.1-.17,2.17,1.85,3,2.88,4.41,2.17,2.92,4.66,5.41,8.92,4.58,3.45-.68,5.69,2.12,8.41,3.45.84.41,2,1.29,1.42,2.51a3.21,3.21,0,0,1-2.83,2.13c-1.81.08-4.14-.59-3.87,2.61.16,1.83,3.09,4.74,4.89,4.83s3.51-.17,5.24.92c1.93,1.21,1.71,2.23.4,3.56-2.12,2.16-4.74,2.24-7.42,1.6-1.39-.34-2.49-.56-3.56.78a2.62,2.62,0,0,1-3.21.4,25.93,25.93,0,0,1-10.24-7.93c-8-10.59-11.33-22.53-11.47-35.72-.09-8.34-2.42-18.48-2.06-26.75a5.23,5.23,0,0,1,3.23-4.7c4-1.62,9.53-2.54,9.27-6.63a58.35,58.35,0,0,1,.58-11.86c.59-4.12,4.87-37.63,6.89-40.17.43-.53,23.26-31.79,26.1-34.38C319.5,97.5,341,86,368,83,394.5,82.5,436.42,126.39,437.43,128.58Zm-15,62.25c-.24.95-.3,1.13-.33,1.31-.64,3.53.81,7-.34,10.71-.58,1.82.75,4.43,1.67,6.48.6,1.32,2.1-.48,3.12.11s2.55,1,2.89,2.52-.57,1.83-1.8,2.29c-1.45.53-1.44,3.11-.08,4.26s2.23,2.32,1.2,4.35c-1.19,2.34.2,4.34,2.81,4.37,4.08.05,8.17-.22,12.22.09,3.36.24,5.27-.82,6.43-4,1-2.82,1.85-2.81,4.51-1.17a45.21,45.21,0,0,1,6.86,4.61c.61.56,1.63,1.07,2.35.68,1-.55.59-1.77.34-2.6a12.63,12.63,0,0,0-4.6-6.25c-3.61-2.9-8.15-3.46-12.25-5.12a3.08,3.08,0,0,1-2.2-2.31c-.15-1,.92-1.86,1.75-2,3.26-.56,6.23-2.4,9.71-2,1.8.19,3.59.05,5.11,1.36,1,.85,2,.19,2.9-.35.3-.17.71-.63.65-.85-.33-1.21-1.41-.61-2.17-.75-1-.19-1.58-.73-1.53-1.73a2.78,2.78,0,0,0-1.35-2.69c-3.13-1.78-5.89-4.32-9.91-4.21-6.12.16-12.24.05-18.36.13a8.35,8.35,0,0,1-3.74-1.09C425.75,195.69,424.39,193.32,422.46,190.83ZM254.89,274.76c-.08.46-.38,1-.21,1.36a16.9,16.9,0,0,0,5.15,6.47c1.43,1,3.85.34,5.83.63,1.27.19,1.23-1.76,1.12-2.51a53.52,53.52,0,0,0-1.73-6.84c-.12-.43-.45-1-.8-1.12-2.63-.63-4.39-2.5-6.3-4.19-1.12-1-2.39-.56-3.45.08s-.55,1.83-.31,2.82S255.11,273.57,254.89,274.76Zm194.46,10.93a11.1,11.1,0,0,0-.68-1.82c-2-3.27-3.52-7.07-5.71-10.07-.69-.94-1.27-2.62-2-1.46a4.75,4.75,0,0,0,.32,4.29,110,110,0,0,1,6.1,10.7c.35.74,1,1.64,1.5,1.06" transform="translate(-110.92 -60)"/><path class="cls-3" d="M429,395.9c1.21,12.88-1.35,25.49-3,38.14-.77,5.92-2.41,11.73-3.51,17.62C421.64,456.05,421,470,417,471s-9.64-1-12-2.47c-4.14-2.62-8.06-5.56-12-8.52-3.13-2.38-6.68-4.22-9.84-6.63-2-1.56-3.9-2.95-3.71-5.93.12-1.89-1.7-2.88-2.64-4.28-2-3-3.39-6.22-3-9.95.29-2.63-1.37-4.47-2.72-6.32a5,5,0,0,1-1.34-3.6c.08-.79,0-1.86-.65-2.1-2.57-1-2.2-2.82-1.68-4.88a4.5,4.5,0,0,0-.83-3.51,2.31,2.31,0,0,1,.06-2.71c.84-.9,1.54.07,2.13.64.86.83,6.83-1.95,7.38.8.78,4,4.25,4.6,6.52,6.71,2,1.84,4.34,3,5.87,5.61a43.82,43.82,0,0,0,8,9.46c.44.42.9,1.26,1.63.63.57-.49.28-1.27,0-1.87-.64-1.36-1.68-2.53-1.48-4.23.14-1.15.48-1.71,1.57-1,1.27.79,7.94-2.85,7.54-4.24-.57-2,6-2.45,5.89-6.22-.15-7.9.48-15.85-1.68-23.6a1.35,1.35,0,0,1,0-.28c-.51-4.27.25-5.1,4.53-4.52,2.88.39,5.75.76,8.25,2.64,1.74,1.3,2.77.41,2.92-1.8.22-3.3.65-6.59,1.12-9.87.1-.72.16-2,1.35-1.83s.79,1.37.79,2.16C429,384.81,429,390.36,429,395.9Z" transform="translate(-110.92 -60)"/><path class="cls-3" d="M367,460.48c-.05,1.58-2.2,1.71-4,1.88a4.55,4.55,0,0,1-5.22-4.26c0-1.77,2.44-4.13,4.38-4.17C364.36,453.87,367,456.85,367,460.48Z" transform="translate(-110.92 -60)"/><path class="cls-3" d="M381.73,466.61a4.06,4.06,0,0,1-1.52,3.14c-1.09.73-2.16-.28-3.13-.83a10.1,10.1,0,0,1-2-1.56c-1.56-1.51-1.62-4.17-.18-5.33a3.8,3.8,0,0,1,5.3.9A5.62,5.62,0,0,1,381.73,466.61Z" transform="translate(-110.92 -60)"/><path class="cls-3" d="M408.79,477.93c.11,1.68-1,2.18-2.35,2.21-2.64.07-5.78-3.14-5.72-5.75a3,3,0,0,1,3.55-2.67C406.07,472.24,408.86,476.07,408.79,477.93Z" transform="translate(-110.92 -60)"/><path class="cls-3" d="M396.58,471.35a2.2,2.2,0,0,1-1,2.46,1.92,1.92,0,0,1-2.29-.21,14.84,14.84,0,0,1-3.36-3c-1.2-1.4-.69-3,.47-4.07s2.32-.7,3.49.41C395.33,468.25,396.51,469.61,396.58,471.35Z" transform="translate(-110.92 -60)"/><path class="cls-4" d="M257.88,214.87" transform="translate(-110.92 -60)"/></g><g id="Layer_3" data-name="Layer 3"><path class="cls-5" d="M425.5,490.5c-22.2,0-54-24.91-170.5-32.5-11-.72-18.47-1.91-29,0-52.5,9.5-58.26,28-60.5,23.5-1-2,.61-11.33,4-15,8-8.62,41.61-32.59,69-48,12.76-7.18,16.86-15.48,22.37-20.19A10.26,10.26,0,0,1,270,396.2c18.86,4.69,70.32,31.43,84.48,39.3,13.5,7.5,26.45,17.11,35,23,17.5,12.05,22.31,16.32,30,11,1.36-.94,1.62-3.58,4-29,.22-2.32.41-4.38.59-6.23a10.32,10.32,0,0,1,15.22-8.06c2.44,1.32,5.19,2.94,8.24,4.92a15,15,0,0,1,3.91,21.79,115.73,115.73,0,0,0-15.69,27.87,12.07,12.07,0,0,0-.43,1.45C434.4,486,431.13,490.5,425.5,490.5Z" transform="translate(-110.92 -60)"/></g><g id="Layer_4" data-name="Layer 4"><polygon class="cls-6" points="253.35 404.81 249.55 401.27 244.48 402.39 246.67 397.69 244.04 393.21 249.19 393.84 252.63 389.96 253.62 395.05 258.38 397.12 253.84 399.64 253.35 404.81"/><polygon class="cls-6" points="270.06 411.81 266.77 408.75 262.39 409.72 264.29 405.65 262.01 401.78 266.46 402.32 269.44 398.96 270.3 403.37 274.41 405.16 270.49 407.34 270.06 411.81"/><polygon class="cls-6" points="284.84 417.06 281.94 414.35 278.07 415.21 279.74 411.62 277.73 408.2 281.67 408.68 284.3 405.71 285.05 409.6 288.69 411.19 285.22 413.11 284.84 417.06"/><polygon class="cls-6" points="296.61 422.26 294.12 419.93 290.79 420.67 292.23 417.58 290.5 414.65 293.88 415.06 296.14 412.51 296.79 415.86 299.92 417.21 296.94 418.87 296.61 422.26"/></g><g id="Layer_10" data-name="Layer 10"><path class="cls-6" d="M602.21,382.52l-22.18-16c-10.4,5.1-21.81,11.69-29.85,19.13-14.64,13.57-32.49,51.74-32.52,51.77l38.08,27.55s28-26.68,36.79-47.43C597,406.93,600.13,393.9,602.21,382.52Z" transform="translate(-110.92 -60)"/><path class="cls-6" d="M602.79,379.24c0-.15.05-.29.07-.43,2.22-13.14,3-23.26,3-23.26s-10,3.44-22.2,9.17l-.57.27Z" transform="translate(-110.92 -60)"/><path class="cls-6" d="M523.74,416.09a.25.25,0,0,0-.24-.41c-2.33.46-10.06,2.31-16,7.56-6.88,6.1-13.94,18.06-13.94,18.06a.15.15,0,0,0,.16.24,57.26,57.26,0,0,1,20-5,.25.25,0,0,0,.23-.21,61.7,61.7,0,0,1,2.59-10.25C517.56,423.62,522.26,417.87,523.74,416.09Z" transform="translate(-110.92 -60)"/><path class="cls-6" d="M572.29,451.22a.26.26,0,0,1,.47.1c.29,2.36,1,10.28-2.19,17.54-3.65,8.44-12.8,18.89-12.8,18.89a.15.15,0,0,1-.28-.08A57.25,57.25,0,0,0,556,467.1a.24.24,0,0,1,.12-.28,62,62,0,0,0,8.93-5.66C567.07,459.45,571.06,453.19,572.29,451.22Z" transform="translate(-110.92 -60)"/><rect class="cls-6" x="520.29" y="453.23" width="23" height="6" transform="translate(257.52 -285.14) rotate(35.89)"/><path class="cls-7" d="M520.87,473a2.41,2.41,0,0,1-3.2-2.31l.32-5.75.32-5.75a2.06,2.06,0,0,1,3.4-1.33l5,3.64,5,3.65a2.06,2.06,0,0,1-.21,3.65l-5.36,2.1Z" transform="translate(-110.92 -60)"/><circle class="cls-8" cx="458.07" cy="344.69" r="10.07"/></g><g id="Layer_11" data-name="Layer 11"><text class="cls-9" transform="matrix(0.83, 0.55, -0.55, 0.83, 103.31, 418.73)">C</text><text class="cls-9" transform="translate(119.42 429.26) rotate(29.32)">A</text><text class="cls-9" transform="translate(138.43 439.71) rotate(25.36)">P</text><text class="cls-9" transform="translate(156.95 448.33) rotate(22.01)">T</text><text class="cls-9" transform="matrix(0.94, 0.33, -0.33, 0.94, 173.85, 455.1)">A</text><text class="cls-9" transform="matrix(0.96, 0.29, -0.29, 0.96, 194.06, 461.98)">I</text><text class="cls-9" transform="matrix(0.97, 0.24, -0.24, 0.97, 206.03, 465.73)">N</text><text class="cls-9" transform="translate(228.65 470.86) rotate(9.51)"> </text><text class="cls-9" transform="translate(239.98 472.76) rotate(5.52)">C</text><text class="cls-9" transform="translate(263.95 474.68) rotate(-1.36)">O</text><text class="cls-9" transform="matrix(0.99, -0.16, 0.16, 0.99, 292.19, 473.35)">N</text><text class="cls-9" transform="translate(319.52 468.15) rotate(-16.7)">S</text><text class="cls-9" transform="translate(342.58 460.72) rotate(-24.07)">O</text><text class="cls-9" transform="translate(367.95 448.6) rotate(-31.17)">L</text><text class="cls-9" transform="matrix(0.79, -0.61, 0.61, 0.79, 387.88, 435.95)">E</text></g></svg>