<svg xmlns="http://www.w3.org/2000/svg" viewBox="0 0 256.86 231.16"><defs><style>.a,.b{fill:none;stroke:#000;stroke-miterlimit:10;}.a{stroke-width:6px;}.b{stroke-width:4px;}</style></defs><title>navicon_microsoft</title><path class="a" d="M1015.62,498.38a37.58,37.58,0,0,0-2.13-5.48,37,37,0,0,0-30.13-20.74l-4.92-8a11.82,11.82,0,0,0-13.1-6.41l-1.26-2.6a2.45,2.45,0,0,0-3.29-1.14l-16.26,7.87a2.46,2.46,0,0,0-1.15,3.29l1.56,3.22a11.82,11.82,0,0,0-1.93,12l-12.83,6.22c-11.38-3.88-26.76-2.6-41.45,4.51s-25.24,18.39-29.25,29.72L846,527.34l-.71-1a11.84,11.84,0,0,0-11-6.66l-1.55-3.22a2.47,2.47,0,0,0-3.3-1.14l-16.26,7.87a2.46,2.46,0,0,0-1.14,3.3l1.25,2.6a11.81,11.81,0,0,0-3.09,14.25l3.25,8.84A36.94,36.94,0,0,0,811,588.72a38,38,0,0,0,3,5.08c6.36,26.3,20.68,62.13,24.69,70.41a26,26,0,0,0,46.8-22.66c-1.53-3.16-.47-14.47-.05-28A24.86,24.86,0,0,0,920,597.46c4.68-17.13,21.26-19.61,29-15.53,7.54,4,16.37,5.36,24.4,1.48a25,25,0,0,0,13.37-16.74c10.89,8.06,20.42,14.25,22,17.41a26,26,0,0,0,46.8-22.66C1051.54,553.13,1032.31,519.69,1015.62,498.38Z" transform="translate(-804.3 -450.73)"/><circle cx="89.87" cy="139.94" r="17"/><circle cx="155.16" cy="104.99" r="17"/><circle class="b" cx="41.11" cy="123" r="34"/><circle class="b" cx="176.12" cy="57.63" r="34"/><circle cx="157.01" cy="65.21" r="9"/><circle cx="167.17" cy="40.3" r="9"/><circle cx="193.91" cy="47.34" r="9"/><circle cx="182.86" cy="72.7" r="9"/><path d="M838.31,583.83l-7.56,3.66a.81.81,0,0,1-1.08-.37l-5.19-10.72a1.27,1.27,0,0,1,.6-1.71l7.24-3.51a1.51,1.51,0,0,1,1.23,0l6.49,2.58a1.44,1.44,0,0,1,.87,1.66l-1.7,7.33A1.69,1.69,0,0,1,838.31,583.83Z" transform="translate(-804.3 -450.73)"/><path d="M858,574.85l7.56-3.66a.79.79,0,0,0,.37-1.07l-5.19-10.72a1.28,1.28,0,0,0-1.71-.6l-7.24,3.51a1.48,1.48,0,0,0-.8.93L849,570a1.42,1.42,0,0,0,.76,1.7l6.81,3.21A1.63,1.63,0,0,0,858,574.85Z" transform="translate(-804.3 -450.73)"/><path d="M855.9,579.84l3.66,7.56a.8.8,0,0,1-.38,1.07l-10.72,5.2a1.29,1.29,0,0,1-1.71-.6l-3.51-7.24a1.51,1.51,0,0,1,0-1.23l2.59-6.49a1.43,1.43,0,0,1,1.65-.87l7.33,1.7A1.71,1.71,0,0,1,855.9,579.84Z" transform="translate(-804.3 -450.73)"/><path d="M846.92,560.15l-3.66-7.56a.82.82,0,0,0-1.08-.38l-10.72,5.2a1.27,1.27,0,0,0-.6,1.71l3.51,7.24a1.56,1.56,0,0,0,.94.8l6.7,2a1.42,1.42,0,0,0,1.7-.76l3.21-6.81A1.67,1.67,0,0,0,846.92,560.15Z" transform="translate(-804.3 -450.73)"/><path d="M919.46,497.16c-7.73-2.56-17.86-1.75-27.49,2.92s-16.56,12.11-19.34,19.76c-1.83,5-1.89,8.69.45,13.52,2.09,4.3,8.84,7.69,12.83,5.76,6.27-3,5.42-5.43,19.12-12.23,12-6,16.58-3.75,22.47-7.91,3.09-2.18,4.07-9.4,2.29-13.08C927.45,501.07,924.55,498.85,919.46,497.16Z" transform="translate(-804.3 -450.73)"/></svg>