<svg xmlns="http://www.w3.org/2000/svg" viewBox="0 0 399.53 340.72"><title>navicon_sega</title><circle cx="258.83" cy="127.96" r="16"/><circle cx="281.04" cy="88.88" r="17.5"/><circle cx="307.55" cy="49.87" r="17.5"/><circle cx="222.28" cy="99.75" r="14"/><circle cx="241.45" cy="61.55" r="13.5"/><circle cx="268.28" cy="32.66" r="14"/><path d="M774.2,517.43a43.5,43.5,0,1,0,60.52,11A43.49,43.49,0,0,0,774.2,517.43ZM831.63,538l-17.12,11.85a4,4,0,0,0-1,5.59L829,574.4a2.48,2.48,0,0,1-.65,3.44L811.5,589.51a2.49,2.49,0,0,1-3.45-.6L795.81,567.7a4,4,0,0,0-5.58-1l-17.5,14.53a2.47,2.47,0,0,1-3.45-.6l-10.36-15a2.48,2.48,0,0,1,.65-3.44L779.34,551a4,4,0,0,0,1-5.59l-12.19-14.09a2.48,2.48,0,0,1,.65-3.44l16.87-11.68a2.48,2.48,0,0,1,3.45.61l8.9,16.37a4,4,0,0,0,5.59,1L818,521.8a2.48,2.48,0,0,1,3.45.61l10.86,12.18A2.46,2.46,0,0,1,831.63,538Z" transform="translate(-715.08 -348.56)"/><circle cx="82.04" cy="202.87" r="7.5"/><path d="M1018.37,352.72C960,340.46,889.11,355.22,827.23,398S726.56,502,717.44,561c-6,38.82-1.28,65.92,22,99.64,20.79,30,64.75,36.71,90.36,19,40.29-27.88,13.53-70,101.35-132.14,77.11-54.58,129.91-16.94,165.9-52.79,18.91-18.83,24.5-60.52,6.74-86.17C1080.51,374.75,1056.82,360.79,1018.37,352.72Zm-162.82,241c-24.21,35.06-62.22,54.31-92.35,33.5s-40.56-76.45-16.36-111.51,62.15-49.95,92.28-29.15S879.75,558.63,855.55,593.69Zm39.3-109.28L875.93,497.5a9,9,0,1,1-10.24-14.8l18.91-13.09a9,9,0,1,1,10.25,14.8Zm171.75-62.19c9.16,36.79-24.36,66.85-68.3,77.79s-90.79-17.7-100-54.49,20-68.34,64-79.29S1057.43,385.43,1066.6,422.22Z" transform="translate(-715.08 -348.56)"/></svg>