<svg xmlns="http://www.w3.org/2000/svg" viewBox="0 0 122 182"><title>navicon_other</title><path d="M921.82,603.64h-10.5a2.19,2.19,0,0,0-1.44.55l-6.31,5.61a1.05,1.05,0,0,0,.7,1.84h24.09a1.19,1.19,0,0,0,.79-2.08L923,604.1A1.81,1.81,0,0,0,921.82,603.64Z" transform="translate(-899 -429.64)"/><path d="M1008.82,603.64h-10.5a2.19,2.19,0,0,0-1.44.55l-6.31,5.61a1.05,1.05,0,0,0,.7,1.84h24.09a1.19,1.19,0,0,0,.79-2.08L1010,604.1A1.81,1.81,0,0,0,1008.82,603.64Z" transform="translate(-899 -429.64)"/><path d="M1006.26,570.14H988v-.73a3.28,3.28,0,0,0-3.27-3.27H982a3.29,3.29,0,0,0-3.26-3H974v-1.38a1.63,1.63,0,0,0-1.62-1.62H967v-1.7a2.31,2.31,0,0,0-2.3-2.3h-9.4a2.31,2.31,0,0,0-2.3,2.3v1.7h-5.38a1.63,1.63,0,0,0-1.62,1.62v1.38h-3.71a3.29,3.29,0,0,0-3.26,3h-3.76a3.28,3.28,0,0,0-3.27,3.27v.73H913.74A14.79,14.79,0,0,0,899,584.88v2.53a14.78,14.78,0,0,0,14.74,14.73h7.59l5.17-4.5h65l4.64,4.5h10.12A14.78,14.78,0,0,0,1021,587.41v-2.53A14.79,14.79,0,0,0,1006.26,570.14Z" transform="translate(-899 -429.64)"/><path d="M987.64,539.27a30.78,30.78,0,0,1-11.14-3.63c-5-3-3-19.4-3-20l-3-26,2-20,3-3,2-9-2-21c0-.81-2-4-6-4l-3,.23v-3.23h-19v4.63l-5,.37a2.61,2.61,0,0,0-2,2L938,440.69l-7.53,3.95-1,10,7.66,11.49a1.9,1.9,0,0,0,.92.73l3.84,1.41a1.43,1.43,0,0,1,.65,1.06l1.92,19.22a1.21,1.21,0,0,1,0,.19l-1,29.36c0,.29,0,.59-.07.89a1,1,0,0,0,0,.38c.26,1.51,1.95,11.73-1,15.27-2.58,3.14-8,6.21-9.91,7.21a1.39,1.39,0,0,0-.74,1.09,4.72,4.72,0,0,0,3.08,5c1.94.71,4.06,1.7,4.57,2.72.66,1.32,1.39,3.08,1.82,4.12a1.39,1.39,0,0,0,1.31.88h31.44a1.42,1.42,0,0,0,.42-.06l2.37-.74a1.42,1.42,0,0,0,.89-.8c.57-1.37,2-4.61,2.75-5.4s4.7-1.29,6.76-1.54a1.41,1.41,0,0,0,1.24-1.41v-5.11A1.43,1.43,0,0,0,987.64,539.27Z" transform="translate(-899 -429.64)"/></svg>