<svg xmlns="http://www.w3.org/2000/svg" viewBox="0 0 259.45 234.37"><defs><style>.a,.b{fill:none;stroke:#000;stroke-miterlimit:10;}.a{stroke-width:4px;}.b{stroke-width:6px;}</style></defs><title>navicon_sony</title><circle class="a" cx="41.69" cy="125.95" r="36.75"/><circle class="a" cx="173.79" cy="57.02" r="36.75"/><circle cx="155.72" cy="66.16" r="9"/><circle cx="165.12" cy="40.95" r="9"/><circle cx="192.07" cy="47.19" r="9"/><circle cx="181.78" cy="72.87" r="9"/><path d="M874,564.84l-8,4.2a.87.87,0,0,1-1.17-.37l-6-11.41a1.39,1.39,0,0,1,.59-1.87l7.71-4a1.66,1.66,0,0,1,1.33-.08l7.1,2.58a1.56,1.56,0,0,1,1,1.76l-1.6,8A1.79,1.79,0,0,1,874,564.84Z" transform="translate(-839.18 -426.86)"/><path d="M895,554.5l8-4.2a.87.87,0,0,0,.37-1.17l-5.95-11.42a1.39,1.39,0,0,0-1.88-.58l-7.7,4a1.61,1.61,0,0,0-.83,1l-1.94,7.3a1.55,1.55,0,0,0,.87,1.82l7.46,3.25A1.85,1.85,0,0,0,895,554.5Z" transform="translate(-839.18 -426.86)"/><path d="M892.86,560l4.2,8a.87.87,0,0,1-.37,1.18l-11.41,6a1.39,1.39,0,0,1-1.87-.59l-4-7.71a1.66,1.66,0,0,1-.08-1.33l2.58-7.1a1.55,1.55,0,0,1,1.76-1l8,1.6A1.8,1.8,0,0,1,892.86,560Z" transform="translate(-839.18 -426.86)"/><path d="M882.52,539l-4.2-8.05a.86.86,0,0,0-1.17-.36l-11.42,6a1.39,1.39,0,0,0-.59,1.87l4,7.71a1.65,1.65,0,0,0,1,.83l7.31,1.94a1.53,1.53,0,0,0,1.81-.88l3.25-7.46A1.79,1.79,0,0,0,882.52,539Z" transform="translate(-839.18 -426.86)"/><path class="b" d="M883.93,516l-5.17-9.9a11.82,11.82,0,0,0-11.2-6.33l-20.71,10a11.83,11.83,0,0,0-2.67,14.34l3.52,8.73a37,37,0,0,0-1.32,36.56,39.45,39.45,0,0,0,3.13,5c7.15,26.1,22.53,61.48,26.79,69.64,6.64,12.73,22.64,18.19,35.08,11,20.08-11.56,17.27-46.87,15.77-77l82.24-42.92c23.88,18.49,51.24,41,72.21,31.13,13-6.11,17.66-22.35,11-35.08-4.26-8.16-24.48-41-41.8-61.81a38.51,38.51,0,0,0-2.3-5.41,37,37,0,0,0-30.74-19.83l-5.15-7.88a11.82,11.82,0,0,0-13.29-6l-20.07,11.25a11.83,11.83,0,0,0-1.22,12.8l4.71,9" transform="translate(-839.18 -426.86)"/><polygon points="137.64 55.29 62.28 94.61 55.96 91.15 137.53 48.59 137.64 55.29"/><rect x="931.5" y="531.55" width="21" height="12" rx="1.42" ry="1.42" transform="translate(-981 69.9) rotate(-27.56)"/><path d="M963.15,531.61,958,521.7a1.16,1.16,0,0,1,.65-1.79l17.71-2.65a1,1,0,0,1,.85,1.63L964.76,532A1,1,0,0,1,963.15,531.61Z" transform="translate(-839.18 -426.86)"/><polygon points="166.94 94.15 76.93 139.98 87.88 152.32 171.22 108.83 166.94 94.15"/></svg>