<svg xmlns="http://www.w3.org/2000/svg" viewBox="0 0 119.31 104.59"><title>navicon_nintendo</title><path d="M1012,704.14l-5.74,4.36-4.36-5.74a.79.79,0,0,0-1.11-.15l-5.91,4.49a.79.79,0,0,0-.15,1.1l4.37,5.75-4.95,3.76a.78.78,0,0,0-.15,1.1l4.49,5.91a.8.8,0,0,0,1.11.15l4.94-3.76,3.76,4.95a.79.79,0,0,0,1.1.15l5.92-4.49a.8.8,0,0,0,.15-1.11l-3.76-4.94,5.74-4.37a.78.78,0,0,0,.15-1.1l-4.49-5.91A.79.79,0,0,0,1012,704.14Z" transform="translate(-977.85 -638.71)"/><rect x="1022.85" y="700.46" width="12.04" height="3" transform="translate(-836.54 937.06) rotate(-78.86)"/><rect x="1034" y="691.98" width="12.04" height="3" transform="translate(-819.23 941.17) rotate(-78.86)"/><path d="M1052.63,648.1a24.5,24.5,0,1,0,34.33,4.68A24.49,24.49,0,0,0,1052.63,648.1Zm4.19,32.58-.7-.2a4.82,4.82,0,0,1-3.3-6l5.39-18.8a4.83,4.83,0,0,1,6-3.31l.7.2a4.82,4.82,0,0,1,3.3,6l-5.39,18.81A4.82,4.82,0,0,1,1056.82,680.68Zm25.86-20.83-5.39,18.81a4.82,4.82,0,0,1-6,3.3l-.69-.2a4.82,4.82,0,0,1-3.31-6l5.4-18.8a4.82,4.82,0,0,1,6-3.31l.69.2A4.81,4.81,0,0,1,1082.68,659.85Z" transform="translate(-977.85 -638.71)"/><ellipse cx="1062.69" cy="658.92" rx="4.41" ry="3.92" transform="translate(-1159.93 138.65) rotate(-37.24)"/><ellipse cx="1057.59" cy="674.47" rx="4.5" ry="4" transform="translate(-1170.38 138.73) rotate(-37.24)"/><ellipse cx="1072.9" cy="676.39" rx="4.41" ry="3.92" transform="translate(-1168.42 148.38) rotate(-37.24)"/><ellipse cx="1077.2" cy="660.2" rx="4.41" ry="3.92" transform="translate(-1157.74 147.69) rotate(-37.24)"/><path d="M1068.14,641.71a26,26,0,0,1,0,52c-.52,0-1,0-1.57-.05l-1.11-.07-.88.68L1033.38,718l-.89.67-.23,1.09a26,26,0,1,1-41.14-26.16l61.46-46.72.57-.4a25.81,25.81,0,0,1,15-4.77m0-3a28.8,28.8,0,0,0-16.72,5.32l0,0-62.1,47.2a29,29,0,1,0,45.89,29.18l31.24-23.75c.58,0,1.17.06,1.75.06a29,29,0,0,0,0-58Z" transform="translate(-977.85 -638.71)"/></svg>