<svg xmlns="http://www.w3.org/2000/svg" viewBox="0 0 101 74.14"><defs><style>.a{fill:#6d2821;fill-rule:evenodd;}.b{fill:#f5eebf;}</style></defs><title>shoping_bach</title><path class="a" d="M812,417H913v56.63s-40.83,17.51-51.38,17.51c-12.47,0-49.62-17.51-49.62-17.51Z" transform="translate(-812 -417)"/><path class="b" d="M873.69,465.59a3.22,3.22,0,1,0,3.51,3.2A3.36,3.36,0,0,0,873.69,465.59Z" transform="translate(-812 -417)"/><path class="b" d="M848,465.59a3.22,3.22,0,1,0,3.5,3.2A3.36,3.36,0,0,0,848,465.59Z" transform="translate(-812 -417)"/><path class="b" d="M885.56,439H840.7l-1.26-5h-9l1.74,4.28h4.51l8.11,28.17h30.94l2-4.28H847.46l-1-3.07H879Z" transform="translate(-812 -417)"/></svg>